<svg width="294" height="64" viewBox="0 0 294 64" fill="none" xmlns="http://www.w3.org/2000/svg">
<path d="M16.64 63.36C15.7013 63.36 15.0827 62.976 14.784 62.208C14.4853 61.44 14.336 60.6507 14.336 59.84C14.336 57.792 14.7413 55.616 15.552 53.312C16.3627 51.008 17.4507 48.704 18.816 46.4C20.1813 44.0533 21.7173 41.8347 23.424 39.744C25.1733 37.6533 26.9653 35.7973 28.8 34.176C30.6773 32.512 32.4693 31.2107 34.176 30.272C34.6027 27.9253 34.9867 25.5573 35.328 23.168C35.6693 20.7787 35.84 18.4107 35.84 16.064V14.464C35.0293 16.3413 34.1333 18.24 33.152 20.16C32.2133 22.0373 31.1467 23.8507 29.952 25.6C29.44 26.368 28.7147 27.4133 27.776 28.736C26.8373 30.0587 25.7707 31.488 24.576 33.024C23.3813 34.5173 22.144 35.9467 20.864 37.312C19.6267 38.6347 18.4107 39.744 17.216 40.64C16.0213 41.4933 14.9547 41.92 14.016 41.92C12.9493 41.92 12.2027 41.4507 11.776 40.512C11.3493 39.5733 11.136 38.656 11.136 37.76C11.136 35.8827 11.5627 33.792 12.416 31.488C13.312 29.184 14.4 26.7947 15.68 24.32C16.96 21.8453 18.24 19.392 19.52 16.96C20.8 14.4853 21.8667 12.1387 22.72 9.92C23.616 7.65867 24.064 5.61067 24.064 3.776C24.064 3.05067 23.8933 2.56 23.552 2.304C23.2533 2.048 22.784 1.92 22.144 1.92C20.5227 1.92 18.7947 2.34667 16.96 3.2C15.1253 4.05333 13.312 5.20533 11.52 6.656C9.728 8.10667 8.10667 9.70667 6.656 11.456C5.248 13.2053 4.096 15.0187 3.2 16.896C2.34667 18.7307 1.92 20.4587 1.92 22.08C1.92 22.7627 2.13333 23.424 2.56 24.064C2.98667 24.6613 3.584 24.96 4.352 24.96C5.41867 24.96 6.44267 24.6827 7.424 24.128C8.448 23.5733 9.32267 23.04 10.048 22.528C10.7733 21.9733 11.2 21.696 11.328 21.696C11.6693 21.696 11.84 21.8453 11.84 22.144C11.84 22.5707 11.5413 23.0613 10.944 23.616C10.3467 24.1707 9.6 24.704 8.704 25.216C7.85067 25.6853 7.01867 26.0907 6.208 26.432C5.39733 26.7307 4.77867 26.88 4.352 26.88C3.02933 26.88 1.96267 26.3893 1.152 25.408C0.384 24.4267 0 23.3173 0 22.08C0 20.288 0.469333 18.3893 1.408 16.384C2.38933 14.336 3.66933 12.352 5.248 10.432C6.86933 8.512 8.64 6.76267 10.56 5.184C12.5227 3.60534 14.5067 2.34667 16.512 1.408C18.56 0.469334 20.48 0 22.272 0C23.7653 0 24.8533 0.469334 25.536 1.408C26.2187 2.304 26.56 3.43467 26.56 4.8C26.56 6.63467 26.0907 8.66133 25.152 10.88C24.256 13.0987 23.1467 15.424 21.824 17.856C20.5013 20.2453 19.1573 22.6133 17.792 24.96C16.4693 27.3067 15.3387 29.5467 14.4 31.68C13.504 33.8133 13.056 35.712 13.056 37.376C13.056 37.8453 13.1413 38.464 13.312 39.232C13.5253 39.9573 13.952 40.32 14.592 40.32C15.2747 40.32 16.1067 39.8933 17.088 39.04C18.112 38.144 19.1787 37.0133 20.288 35.648C21.44 34.24 22.5493 32.8107 23.616 31.36C24.6827 29.8667 25.6427 28.5013 26.496 27.264C27.3493 26.0267 27.968 25.1093 28.352 24.512C29.9307 22.2507 31.1467 19.8827 32 17.408C32.8533 14.8907 33.7493 12.3733 34.688 9.856C34.9013 9.38667 35.136 9.00267 35.392 8.704C35.648 8.40533 36.0533 8.256 36.608 8.256C37.3333 8.256 37.8453 8.53333 38.144 9.088C38.4427 9.64267 38.6133 10.2827 38.656 11.008C38.7413 11.6907 38.784 12.288 38.784 12.8C38.784 15.4453 38.5493 18.176 38.08 20.992C37.6533 23.7653 37.2053 26.4747 36.736 29.12C37.6747 28.7787 38.6347 28.48 39.616 28.224C40.64 27.9253 41.6427 27.776 42.624 27.776C43.7333 27.776 44.672 28.0747 45.44 28.672C46.2507 29.2693 46.656 30.1653 46.656 31.36V31.616C46.656 31.7867 46.6347 31.9573 46.592 32.128C46.5493 32.2987 46.4427 32.4053 46.272 32.448C46.016 32.32 45.8453 32.0853 45.76 31.744C45.7173 31.4027 45.632 31.04 45.504 30.656C45.376 30.272 45.0987 29.952 44.672 29.696C44.288 29.3973 43.648 29.248 42.752 29.248C41.6853 29.248 40.576 29.4187 39.424 29.76C38.3147 30.1013 37.2907 30.5067 36.352 30.976C35.456 35.4987 34.24 39.9147 32.704 44.224C31.168 48.5333 28.9493 52.5227 26.048 56.192C25.5787 56.7467 24.9813 57.4293 24.256 58.24C23.5307 59.0507 22.72 59.84 21.824 60.608C20.9707 61.376 20.096 62.016 19.2 62.528C18.304 63.0827 17.4507 63.36 16.64 63.36ZM17.536 61.248C18.0907 61.248 18.7093 61.0133 19.392 60.544C20.0747 60.0747 20.7573 59.4987 21.44 58.816C22.1653 58.176 22.8053 57.5147 23.36 56.832C23.9573 56.192 24.4053 55.68 24.704 55.296C27.392 52.0107 29.376 48.384 30.656 44.416C31.9787 40.448 33.024 36.416 33.792 32.32C32.2987 33.2587 30.7413 34.496 29.12 36.032C27.5413 37.568 25.984 39.296 24.448 41.216C22.912 43.136 21.5253 45.1627 20.288 47.296C19.0933 49.3867 18.1333 51.456 17.408 53.504C16.6827 55.5947 16.32 57.536 16.32 59.328C16.32 59.712 16.384 60.1173 16.512 60.544C16.6827 61.0133 17.024 61.248 17.536 61.248Z" fill="black"/>
<path d="M54.876 49.344C54.0653 49.344 53.3827 49.0453 52.828 48.448C52.316 47.8507 51.9107 47.1253 51.612 46.272C51.3133 45.376 51.1 44.48 50.972 43.584C50.8867 42.688 50.844 41.9413 50.844 41.344C50.844 40.704 50.908 39.68 51.036 38.272C51.2067 36.8213 51.4627 35.2213 51.804 33.472C52.1453 31.7227 52.572 30.0373 53.084 28.416C53.596 26.752 54.1933 25.3653 54.876 24.256C55.6013 23.1467 56.4333 22.5493 57.372 22.464C57.5 22.08 57.692 21.76 57.948 21.504C58.204 21.2053 58.5453 21.056 58.972 21.056C59.8253 21.056 60.572 21.4187 61.212 22.144C61.852 22.8693 62.3853 23.7653 62.812 24.832C63.2387 25.8987 63.5587 26.944 63.772 27.968C64.028 28.992 64.156 29.824 64.156 30.464C64.156 32.4267 63.964 34.368 63.58 36.288L64.092 36.352C65.3293 36.352 66.2893 36.16 66.972 35.776C67.6547 35.392 68.188 35.0293 68.572 34.688C68.956 34.304 69.276 34.112 69.532 34.112C69.788 34.112 69.916 34.2613 69.916 34.56C69.916 35.072 69.6387 35.5413 69.084 35.968C68.572 36.352 67.932 36.7147 67.164 37.056C66.396 37.3547 65.6493 37.568 64.924 37.696C64.1987 37.824 63.644 37.8453 63.26 37.76C63.0467 38.656 62.684 39.7653 62.172 41.088C61.7027 42.368 61.1053 43.648 60.38 44.928C59.6973 46.1653 58.8867 47.2107 57.948 48.064C57.0093 48.9173 55.9853 49.344 54.876 49.344ZM61.852 35.008C62.108 33.5147 62.236 32 62.236 30.464C62.236 30.1227 62.1507 29.5467 61.98 28.736C61.852 27.8827 61.6387 26.9867 61.34 26.048C61.084 25.1093 60.764 24.2987 60.38 23.616C59.996 22.9333 59.5907 22.592 59.164 22.592C58.9507 22.592 58.78 22.7627 58.652 23.104C58.5667 23.4027 58.5027 23.744 58.46 24.128C58.46 24.512 58.46 24.768 58.46 24.896C58.46 26.6027 58.716 28.3947 59.228 30.272C59.7827 32.1067 60.6573 33.6853 61.852 35.008ZM55.068 47.68C55.708 47.68 56.3693 47.2533 57.052 46.4C57.7347 45.504 58.3747 44.4373 58.972 43.2C59.612 41.92 60.1453 40.704 60.572 39.552C60.9987 38.4 61.276 37.5467 61.404 36.992C59.7827 35.8827 58.5667 34.3893 57.756 32.512C56.988 30.6347 56.604 28.7147 56.604 26.752C56.604 25.8987 56.668 25.088 56.796 24.32C55.9 25.856 55.1533 27.6693 54.556 29.76C53.9587 31.8507 53.5107 33.984 53.212 36.16C52.956 38.336 52.828 40.32 52.828 42.112C52.828 42.5387 52.8707 43.2 52.956 44.096C53.084 44.992 53.3187 45.824 53.66 46.592C54.0013 47.3173 54.4707 47.68 55.068 47.68Z" fill="black"/>
<path d="M76.948 46.848C76.2653 46.848 75.7107 46.5707 75.284 46.016C74.9 45.4613 74.6013 44.7787 74.388 43.968C74.1747 43.1147 74.0253 42.304 73.94 41.536C73.8973 40.7253 73.876 40.0853 73.876 39.616C73.876 39.1893 73.876 38.7627 73.876 38.336C73.9187 37.9093 73.9613 37.4827 74.004 37.056C74.1747 35.7333 74.4093 34.432 74.708 33.152C75.0067 31.8293 75.2413 30.5067 75.412 29.184C75.4973 28.5013 75.5613 27.84 75.604 27.2C75.6467 26.56 75.6893 25.8987 75.732 25.216C75.7747 25.0027 75.8387 24.8107 75.924 24.64C76.0093 24.4267 76.18 24.32 76.436 24.32C76.9053 24.32 77.1827 24.5333 77.268 24.96C77.396 25.344 77.46 25.7067 77.46 26.048C77.46 27.584 77.3107 29.0987 77.012 30.592C76.7133 32.0853 76.4147 33.5787 76.116 35.072C75.8173 36.5653 75.668 38.08 75.668 39.616C75.668 39.7867 75.668 40.1707 75.668 40.768C75.7107 41.3227 75.7747 41.9413 75.86 42.624C75.9453 43.264 76.0733 43.8187 76.244 44.288C76.4573 44.7573 76.7133 44.992 77.012 44.992C77.396 44.992 77.8867 44.544 78.484 43.648C79.124 42.752 79.764 41.6853 80.404 40.448C81.0867 39.168 81.684 37.9947 82.196 36.928C82.7507 35.8187 83.1133 35.072 83.284 34.688C83.8813 33.3653 84.2653 32.1493 84.436 31.04C84.6493 29.9307 84.7987 28.9067 84.884 27.968C84.9693 26.9867 85.1827 26.0267 85.524 25.088C85.7373 24.576 86.0573 24.32 86.484 24.32C87.124 24.32 87.444 24.704 87.444 25.472C87.444 26.7947 87.2947 28.3947 86.996 30.272C86.6973 32.1067 86.548 33.92 86.548 35.712V37.12C86.548 37.4187 86.548 37.888 86.548 38.528C86.548 39.1253 86.5907 39.7653 86.676 40.448C86.804 41.1307 86.9747 41.7067 87.188 42.176C87.444 42.6453 87.8067 42.88 88.276 42.88C88.8307 42.88 89.3853 42.56 89.94 41.92C90.4947 41.28 91.0067 40.5333 91.476 39.68C91.988 38.8267 92.4147 38.08 92.756 37.44C93.0973 36.8 93.3533 36.48 93.524 36.48C93.78 36.48 93.908 36.6507 93.908 36.992C93.908 37.376 93.6947 37.9947 93.268 38.848C92.884 39.6587 92.372 40.512 91.732 41.408C91.1347 42.304 90.4947 43.072 89.812 43.712C89.172 44.352 88.6173 44.672 88.148 44.672C87.1667 44.672 86.42 44.2667 85.908 43.456C85.4387 42.6453 85.0973 41.6427 84.884 40.448C84.7133 39.2533 84.628 38.1013 84.628 36.992C84.628 35.84 84.628 34.944 84.628 34.304C84.4573 34.816 84.18 35.584 83.796 36.608C83.412 37.5893 82.964 38.6773 82.452 39.872C81.94 41.024 81.3853 42.1333 80.788 43.2C80.1907 44.2667 79.5507 45.1413 78.868 45.824C78.228 46.5067 77.588 46.848 76.948 46.848Z" fill="black"/>
<path d="M103.31 48.128C103.011 48.128 102.776 48.0213 102.605 47.808C102.435 47.5947 102.35 47.3387 102.35 47.04C102.35 45.4187 102.413 43.7973 102.541 42.176C102.712 40.512 102.798 38.8693 102.798 37.248C102.798 36.1813 102.755 34.8373 102.67 33.216C102.627 31.552 102.477 29.9307 102.221 28.352C102.008 26.7307 101.624 25.4933 101.069 24.64C101.027 24.5547 100.984 24.4907 100.941 24.448C100.899 24.3627 100.878 24.2773 100.878 24.192C100.878 23.936 101.005 23.7653 101.261 23.68C101.517 23.552 101.731 23.488 101.901 23.488C102.499 23.488 102.968 23.8293 103.31 24.512C103.651 25.1947 103.907 26.0693 104.077 27.136C104.248 28.2027 104.355 29.312 104.397 30.464C104.483 31.5733 104.525 32.5973 104.525 33.536C104.525 34.432 104.525 35.0507 104.525 35.392C104.525 35.8187 104.525 36.224 104.525 36.608C104.568 36.992 104.59 37.3973 104.59 37.824C104.76 37.2267 105.059 36.3093 105.485 35.072C105.912 33.8347 106.424 32.4693 107.021 30.976C107.619 29.44 108.259 27.9893 108.941 26.624C109.667 25.216 110.371 24.064 111.053 23.168C111.779 22.272 112.462 21.824 113.102 21.824C113.742 21.824 114.211 22.2293 114.509 23.04C114.808 23.8507 115 24.7253 115.086 25.664C115.214 26.6027 115.278 27.3067 115.278 27.776C115.278 28.0747 115.256 28.5867 115.214 29.312C115.171 29.9947 115.064 30.6347 114.894 31.232C114.766 31.8293 114.509 32.128 114.125 32.128C113.784 32.128 113.614 31.744 113.614 30.976C113.614 30.6347 113.635 30.3147 113.677 30.016C113.72 29.7173 113.742 29.4827 113.742 29.312C113.742 29.0987 113.72 28.608 113.677 27.84C113.635 27.0293 113.528 26.2613 113.357 25.536C113.229 24.8107 113.038 24.448 112.782 24.448C112.526 24.448 112.206 24.704 111.822 25.216C111.48 25.6853 111.117 26.2613 110.733 26.944C110.392 27.584 110.072 28.224 109.773 28.864C109.517 29.4613 109.347 29.888 109.261 30.144C108.621 31.7227 107.939 33.5147 107.214 35.52C106.531 37.5253 105.934 39.552 105.422 41.6C104.952 43.6053 104.717 45.4827 104.717 47.232C104.419 47.8293 103.95 48.128 103.31 48.128Z" fill="black"/>
<path d="M129.102 24.576C127.438 24.576 125.902 24.128 124.493 23.232C123.085 22.336 121.955 21.1627 121.102 19.712C120.248 18.2187 119.822 16.6613 119.822 15.04C119.822 12.9067 120.333 11.008 121.357 9.344C122.424 7.68 123.789 6.272 125.453 5.12C127.16 3.968 129.016 3.09334 131.021 2.496C133.027 1.89867 134.968 1.6 136.845 1.6C139.064 1.6 141.197 1.89867 143.245 2.496C145.293 3.09334 147.277 3.84 149.197 4.736C151.117 5.632 152.952 6.54934 154.701 7.488C156.451 8.384 158.115 9.13067 159.693 9.728C161.272 10.3253 162.744 10.624 164.109 10.624C165.901 10.624 167.16 10.112 167.885 9.088C168.611 8.064 168.973 6.784 168.973 5.248V5.056C168.973 4.84267 168.995 4.62933 169.037 4.416C169.123 4.16 169.294 4.032 169.549 4.032C169.976 4.032 170.211 4.30934 170.253 4.864C170.339 5.41867 170.382 5.84534 170.382 6.144C170.382 7.424 170.04 8.49067 169.357 9.344C168.675 10.1547 167.8 10.7733 166.733 11.2C165.667 11.584 164.557 11.776 163.405 11.776C161.699 11.776 160.035 11.4987 158.413 10.944C156.835 10.3893 155.235 9.70667 153.613 8.896C152.035 8.08533 150.413 7.296 148.749 6.528C147.085 5.71733 145.315 5.03467 143.438 4.48C141.56 3.92533 139.533 3.648 137.357 3.648C135.779 3.648 134.115 3.904 132.365 4.416C130.616 4.928 128.974 5.67467 127.438 6.656C125.902 7.63734 124.664 8.85334 123.726 10.304C122.787 11.712 122.317 13.3333 122.317 15.168C122.317 16.448 122.659 17.7067 123.341 18.944C124.024 20.1813 124.941 21.2053 126.093 22.016C127.245 22.8267 128.483 23.232 129.805 23.232C130.616 23.232 131.299 23.0827 131.854 22.784C132.451 22.4853 132.92 22.208 133.261 21.952C133.645 21.6533 133.944 21.504 134.158 21.504C134.414 21.504 134.541 21.632 134.541 21.888C134.541 22.4 134.157 22.8693 133.389 23.296C132.664 23.68 131.875 24 131.021 24.256C130.168 24.4693 129.528 24.576 129.102 24.576ZM142.477 49.216C141.069 49.216 139.96 48.8533 139.149 48.128C138.381 47.4027 137.848 46.4853 137.549 45.376C137.251 44.224 137.102 43.072 137.102 41.92C137.102 39.1467 137.315 36.3733 137.741 33.6C138.168 30.8267 138.765 28.096 139.533 25.408C139.192 25.6213 138.573 26.0053 137.677 26.56C136.824 27.1147 135.949 27.6267 135.053 28.096C134.2 28.5653 133.603 28.8 133.261 28.8C133.091 28.8 132.984 28.672 132.941 28.416C132.941 28.16 132.941 28.0107 132.941 27.968C132.941 26.9867 133.389 26.176 134.285 25.536C135.224 24.896 136.269 24.3627 137.421 23.936C138.616 23.4667 139.597 23.0827 140.365 22.784C140.536 22.3147 140.813 21.568 141.197 20.544C141.581 19.52 142.051 18.3893 142.605 17.152C143.203 15.872 143.8 14.656 144.397 13.504C145.037 12.3093 145.656 11.328 146.253 10.56C146.893 9.792 147.469 9.408 147.981 9.408C148.323 9.408 148.685 9.49333 149.069 9.664C149.453 9.83467 149.645 10.0907 149.645 10.432L149.453 10.944C149.197 11.3707 148.877 11.8187 148.493 12.288C148.109 12.7573 147.747 13.2267 147.405 13.696C146.595 14.976 145.827 16.2987 145.102 17.664C144.376 18.9867 143.715 20.3307 143.117 21.696C146.445 20.672 149.902 20.16 153.486 20.16C153.742 20.16 154.232 20.2027 154.957 20.288C155.683 20.3733 156.365 20.5013 157.005 20.672C157.645 20.8427 157.965 21.0987 157.965 21.44C157.965 21.7387 157.816 21.9307 157.517 22.016C157.261 22.0587 157.027 22.08 156.813 22.08C156.003 22.08 155.192 21.9947 154.382 21.824C153.571 21.6533 152.739 21.568 151.885 21.568C148.515 21.568 145.293 22.3147 142.221 23.808C141.155 26.5387 140.323 29.376 139.725 32.32C139.128 35.2213 138.829 38.1653 138.829 41.152C138.829 42.0053 138.872 42.9013 138.957 43.84C139.043 44.736 139.299 45.5467 139.725 46.272C140.152 46.9973 140.835 47.5307 141.773 47.872C141.987 47.9147 142.221 48 142.477 48.128C142.776 48.256 142.925 48.4907 142.925 48.832C142.925 49.088 142.776 49.216 142.477 49.216Z" fill="black"/>
<path d="M167.74 49.152C166.588 49.152 165.67 48.704 164.987 47.808C164.305 46.8693 163.814 45.7387 163.515 44.416C163.217 43.0507 163.025 41.7067 162.939 40.384C162.854 39.0613 162.811 38.016 162.811 37.248C162.811 32.9387 163.302 28.5867 164.283 24.192C164.753 22.144 165.201 20.352 165.628 18.816C166.097 17.28 166.587 15.8507 167.099 14.528C167.611 13.2053 168.187 11.84 168.827 10.432C169.51 9.024 170.278 7.424 171.132 5.632H170.939C170.683 5.632 170.47 5.52533 170.299 5.312C170.171 5.056 170.107 4.82133 170.107 4.608C170.107 4.096 170.427 3.66933 171.067 3.328C171.707 2.98667 172.241 2.816 172.667 2.816C173.563 2.816 174.246 3.22134 174.715 4.032C175.185 4.8 175.505 5.696 175.675 6.72C175.846 7.70133 175.931 8.53334 175.931 9.216C175.931 10.0693 175.868 10.944 175.74 11.84C175.441 13.9733 174.907 16.256 174.139 18.688C173.414 21.12 172.476 23.4453 171.324 25.664C170.214 27.84 168.849 29.7173 167.227 31.296C166.929 31.552 166.545 31.872 166.076 32.256C165.649 32.5973 165.201 32.768 164.731 32.768C164.603 34.2187 164.539 35.712 164.539 37.248C164.539 37.8027 164.561 38.6347 164.604 39.744C164.689 40.8107 164.838 41.9413 165.051 43.136C165.307 44.288 165.67 45.2907 166.139 46.144C166.651 46.9547 167.313 47.36 168.123 47.36C169.019 47.36 169.873 46.8907 170.684 45.952C171.537 44.9707 172.326 43.776 173.051 42.368C173.777 40.9173 174.438 39.488 175.035 38.08C175.633 36.6293 176.123 35.4347 176.507 34.496C176.934 33.5147 177.233 33.0027 177.404 32.96C177.532 33.1307 177.595 33.3867 177.595 33.728C177.595 34.4533 177.404 35.4347 177.02 36.672C176.636 37.9093 176.102 39.2533 175.419 40.704C174.779 42.112 174.033 43.4773 173.179 44.8C172.326 46.08 171.43 47.1253 170.492 47.936C169.596 48.7467 168.678 49.152 167.74 49.152ZM164.859 31.488C165.841 31.232 166.779 30.4213 167.675 29.056C168.614 27.6907 169.467 26.0267 170.235 24.064C171.003 22.1013 171.665 20.096 172.219 18.048C172.817 15.9573 173.265 14.0587 173.563 12.352C173.905 10.6027 174.076 9.30133 174.076 8.448C174.076 8.02134 174.033 7.488 173.947 6.848C173.862 6.16534 173.542 5.73867 172.987 5.568C172.945 5.73867 172.838 5.86667 172.667 5.952C172.539 6.03733 172.433 6.12267 172.347 6.208C171.835 6.76267 171.259 7.82933 170.619 9.408C169.979 10.9867 169.339 12.8427 168.699 14.976C168.102 17.1093 167.526 19.264 166.971 21.44C166.417 23.616 165.947 25.6213 165.563 27.456C165.179 29.248 164.945 30.592 164.859 31.488Z" fill="black"/>
<path d="M187.126 49.344C186.315 49.344 185.633 49.0453 185.078 48.448C184.566 47.8507 184.161 47.1253 183.862 46.272C183.563 45.376 183.35 44.48 183.222 43.584C183.137 42.688 183.094 41.9413 183.094 41.344C183.094 40.704 183.158 39.68 183.286 38.272C183.457 36.8213 183.713 35.2213 184.054 33.472C184.395 31.7227 184.822 30.0373 185.334 28.416C185.846 26.752 186.443 25.3653 187.126 24.256C187.851 23.1467 188.683 22.5493 189.622 22.464C189.75 22.08 189.942 21.76 190.198 21.504C190.454 21.2053 190.795 21.056 191.222 21.056C192.075 21.056 192.822 21.4187 193.462 22.144C194.102 22.8693 194.635 23.7653 195.062 24.832C195.489 25.8987 195.809 26.944 196.022 27.968C196.278 28.992 196.406 29.824 196.406 30.464C196.406 32.4267 196.214 34.368 195.83 36.288L196.342 36.352C197.579 36.352 198.539 36.16 199.222 35.776C199.905 35.392 200.438 35.0293 200.822 34.688C201.206 34.304 201.526 34.112 201.782 34.112C202.038 34.112 202.166 34.2613 202.166 34.56C202.166 35.072 201.889 35.5413 201.334 35.968C200.822 36.352 200.182 36.7147 199.414 37.056C198.646 37.3547 197.899 37.568 197.174 37.696C196.449 37.824 195.894 37.8453 195.51 37.76C195.297 38.656 194.934 39.7653 194.422 41.088C193.953 42.368 193.355 43.648 192.63 44.928C191.947 46.1653 191.137 47.2107 190.198 48.064C189.259 48.9173 188.235 49.344 187.126 49.344ZM194.102 35.008C194.358 33.5147 194.486 32 194.486 30.464C194.486 30.1227 194.401 29.5467 194.23 28.736C194.102 27.8827 193.889 26.9867 193.59 26.048C193.334 25.1093 193.014 24.2987 192.63 23.616C192.246 22.9333 191.841 22.592 191.414 22.592C191.201 22.592 191.03 22.7627 190.902 23.104C190.817 23.4027 190.753 23.744 190.71 24.128C190.71 24.512 190.71 24.768 190.71 24.896C190.71 26.6027 190.966 28.3947 191.478 30.272C192.033 32.1067 192.907 33.6853 194.102 35.008ZM187.318 47.68C187.958 47.68 188.619 47.2533 189.302 46.4C189.985 45.504 190.625 44.4373 191.222 43.2C191.862 41.92 192.395 40.704 192.822 39.552C193.249 38.4 193.526 37.5467 193.654 36.992C192.033 35.8827 190.817 34.3893 190.006 32.512C189.238 30.6347 188.854 28.7147 188.854 26.752C188.854 25.8987 188.918 25.088 189.046 24.32C188.15 25.856 187.403 27.6693 186.806 29.76C186.209 31.8507 185.761 33.984 185.462 36.16C185.206 38.336 185.078 40.32 185.078 42.112C185.078 42.5387 185.121 43.2 185.206 44.096C185.334 44.992 185.569 45.824 185.91 46.592C186.251 47.3173 186.721 47.68 187.318 47.68Z" fill="black"/>
<path d="M217.326 47.168C216.473 47.168 215.769 46.7413 215.214 45.888C214.659 45.0347 214.233 44.0747 213.934 43.008C213.635 41.9413 213.422 41.088 213.294 40.448C213.123 40.832 212.867 41.3867 212.526 42.112C212.227 42.7947 211.865 43.52 211.438 44.288C211.011 45.056 210.563 45.696 210.094 46.208C209.625 46.72 209.155 46.976 208.686 46.976C208.046 46.976 207.534 46.656 207.15 46.016C206.809 45.376 206.553 44.672 206.382 43.904C206.254 43.0933 206.19 42.4533 206.19 41.984C206.19 41.6427 206.233 40.96 206.318 39.936C206.403 38.912 206.531 37.7387 206.702 36.416C206.873 35.0933 207.065 33.8133 207.278 32.576C207.534 31.296 207.811 30.2507 208.11 29.44C208.451 28.5867 208.814 28.16 209.198 28.16C209.582 28.16 209.774 28.3733 209.774 28.8C209.774 29.056 209.753 29.2267 209.71 29.312C209.241 31.4027 208.814 33.472 208.43 35.52C208.046 37.5253 207.854 39.616 207.854 41.792C207.854 42.0053 207.854 42.3253 207.854 42.752C207.897 43.1787 207.982 43.5627 208.11 43.904C208.281 44.2453 208.537 44.416 208.878 44.416C209.134 44.416 209.475 44.1387 209.902 43.584C210.329 42.9867 210.755 42.304 211.182 41.536C211.609 40.7253 211.971 39.9573 212.27 39.232C212.611 38.5067 212.846 38.016 212.974 37.76C212.931 37.5467 212.91 37.3333 212.91 37.12C212.91 36.9067 212.91 36.6933 212.91 36.48C212.91 36.0533 212.91 35.3707 212.91 34.432C212.953 33.4933 213.038 32.512 213.166 31.488C213.337 30.4213 213.593 29.5253 213.934 28.8C214.275 28.032 214.745 27.648 215.342 27.648C215.854 27.648 216.195 27.8613 216.366 28.288C216.537 28.7147 216.622 29.1413 216.622 29.568C216.622 30.2507 216.494 31.0827 216.238 32.064C216.025 33.0027 215.747 33.9413 215.406 34.88C215.107 35.8187 214.83 36.608 214.574 37.248C214.574 37.5893 214.617 38.1867 214.702 39.04C214.83 39.8933 215.001 40.8107 215.214 41.792C215.427 42.7307 215.705 43.5413 216.046 44.224C216.387 44.9067 216.793 45.248 217.262 45.248C217.646 45.248 218.073 44.992 218.542 44.48C219.011 43.968 219.459 43.392 219.886 42.752C220.313 42.112 220.611 41.6427 220.782 41.344C222.702 37.7173 223.662 33.8987 223.662 29.888C223.662 29.3333 223.555 28.6293 223.342 27.776C223.171 26.88 222.894 26.048 222.51 25.28C222.169 24.4693 221.699 23.9573 221.102 23.744C220.931 23.6587 220.739 23.5733 220.526 23.488C220.313 23.36 220.206 23.1467 220.206 22.848C220.206 22.7627 220.249 22.656 220.334 22.528C220.419 22.4 220.526 22.336 220.654 22.336C221.379 22.336 222.019 22.6133 222.574 23.168C223.171 23.7227 223.683 24.4267 224.11 25.28C224.537 26.1333 224.857 26.9867 225.07 27.84C225.283 28.6507 225.39 29.3547 225.39 29.952C225.39 32.128 225.113 34.2827 224.558 36.416C224.003 38.5067 223.214 40.512 222.19 42.432C221.977 42.816 221.571 43.392 220.974 44.16C220.377 44.928 219.737 45.632 219.054 46.272C218.414 46.8693 217.838 47.168 217.326 47.168Z" fill="black"/>
<path d="M238.793 48.32C237.641 48.32 236.745 47.808 236.105 46.784C235.508 45.76 235.103 44.5227 234.889 43.072C234.676 41.5787 234.569 40.192 234.569 38.912C234.569 38.3147 234.569 37.7813 234.569 37.312C234.612 36.8 234.655 36.3733 234.697 36.032H234.505C233.993 36.032 233.737 35.84 233.737 35.456C233.823 35.2427 233.972 35.072 234.185 34.944C234.441 34.7733 234.676 34.6667 234.889 34.624C235.103 32.7467 235.508 30.8267 236.105 28.864C236.703 26.9013 237.513 25.1307 238.537 23.552V23.168C238.537 22.7413 238.793 22.4853 239.305 22.4C239.519 22.1867 239.732 21.952 239.945 21.696C240.201 21.3973 240.479 21.248 240.777 21.248C241.119 21.248 241.375 21.3973 241.545 21.696C241.759 21.952 241.78 22.2293 241.609 22.528C242.42 22.6987 243.145 23.04 243.785 23.552C244.468 24.0213 244.809 24.7253 244.809 25.664C244.809 26.9013 244.34 28.1813 243.401 29.504C242.505 30.784 241.417 31.9573 240.137 33.024C238.9 34.048 237.769 34.816 236.745 35.328C236.617 36.352 236.532 37.3973 236.489 38.464C236.489 39.488 236.489 40.512 236.489 41.536C236.489 42.048 236.511 42.688 236.553 43.456C236.639 44.224 236.831 44.9067 237.129 45.504C237.471 46.1013 238.025 46.4 238.793 46.4C239.604 46.4 240.393 46.0373 241.161 45.312C241.972 44.5867 242.74 43.6693 243.465 42.56C244.233 41.408 244.937 40.2133 245.577 38.976C246.217 37.7387 246.772 36.5653 247.241 35.456C247.711 34.3467 248.052 33.4933 248.265 32.896C248.351 32.6827 248.457 32.4907 248.585 32.32C248.713 32.1067 248.905 32 249.161 32C249.503 32 249.673 32.2133 249.673 32.64C249.673 33.3227 249.439 34.304 248.969 35.584C248.5 36.8213 247.86 38.1653 247.049 39.616C246.281 41.0667 245.407 42.4533 244.425 43.776C243.487 45.0987 242.527 46.1867 241.545 47.04C240.564 47.8933 239.647 48.32 238.793 48.32ZM237.065 33.344C237.876 32.832 238.687 32.192 239.497 31.424C240.308 30.656 240.991 29.7813 241.545 28.8C242.1 27.8187 242.377 26.8373 242.377 25.856C242.377 25.344 242.121 24.9813 241.609 24.768C241.097 24.512 240.649 24.3627 240.265 24.32C239.455 25.6427 238.772 27.0933 238.217 28.672C237.705 30.2507 237.321 31.808 237.065 33.344Z" fill="black"/>
<path d="M257.585 48.128C257.286 48.128 257.051 48.0213 256.88 47.808C256.71 47.5947 256.625 47.3387 256.625 47.04C256.625 45.4187 256.688 43.7973 256.816 42.176C256.987 40.512 257.073 38.8693 257.073 37.248C257.073 36.1813 257.03 34.8373 256.944 33.216C256.902 31.552 256.752 29.9307 256.496 28.352C256.283 26.7307 255.899 25.4933 255.345 24.64C255.302 24.5547 255.259 24.4907 255.217 24.448C255.174 24.3627 255.152 24.2773 255.152 24.192C255.152 23.936 255.28 23.7653 255.536 23.68C255.792 23.552 256.006 23.488 256.177 23.488C256.774 23.488 257.243 23.8293 257.585 24.512C257.926 25.1947 258.182 26.0693 258.353 27.136C258.523 28.2027 258.63 29.312 258.673 30.464C258.758 31.5733 258.801 32.5973 258.801 33.536C258.801 34.432 258.801 35.0507 258.801 35.392C258.801 35.8187 258.801 36.224 258.801 36.608C258.843 36.992 258.865 37.3973 258.865 37.824C259.035 37.2267 259.334 36.3093 259.76 35.072C260.187 33.8347 260.699 32.4693 261.297 30.976C261.894 29.44 262.534 27.9893 263.216 26.624C263.942 25.216 264.646 24.064 265.328 23.168C266.054 22.272 266.736 21.824 267.376 21.824C268.016 21.824 268.486 22.2293 268.785 23.04C269.083 23.8507 269.275 24.7253 269.361 25.664C269.489 26.6027 269.552 27.3067 269.552 27.776C269.552 28.0747 269.531 28.5867 269.488 29.312C269.446 29.9947 269.339 30.6347 269.168 31.232C269.04 31.8293 268.785 32.128 268.401 32.128C268.059 32.128 267.888 31.744 267.888 30.976C267.888 30.6347 267.91 30.3147 267.953 30.016C267.995 29.7173 268.017 29.4827 268.017 29.312C268.017 29.0987 267.995 28.608 267.953 27.84C267.91 27.0293 267.803 26.2613 267.633 25.536C267.505 24.8107 267.312 24.448 267.056 24.448C266.8 24.448 266.48 24.704 266.096 25.216C265.755 25.6853 265.393 26.2613 265.009 26.944C264.667 27.584 264.347 28.224 264.048 28.864C263.792 29.4613 263.622 29.888 263.536 30.144C262.896 31.7227 262.214 33.5147 261.488 35.52C260.806 37.5253 260.209 39.552 259.697 41.6C259.227 43.6053 258.992 45.4827 258.992 47.232C258.694 47.8293 258.225 48.128 257.585 48.128Z" fill="black"/>
<path d="M279.921 48.512C279.153 48.512 278.768 48.128 278.768 47.36C278.768 46.6347 279.024 45.824 279.536 44.928C280.091 43.9893 280.753 43.0507 281.521 42.112C282.289 41.1307 283.056 40.2347 283.824 39.424C284.635 38.6133 285.297 37.952 285.809 37.44C285.211 37.1413 284.464 36.8853 283.568 36.672C282.715 36.416 281.84 36.1387 280.944 35.84C280.091 35.4987 279.366 35.072 278.768 34.56C278.214 34.0053 277.936 33.28 277.936 32.384C277.936 31.4453 278.278 30.3787 278.961 29.184C279.686 27.9893 280.603 26.8373 281.712 25.728C282.822 24.576 283.952 23.6373 285.104 22.912C286.256 22.144 287.28 21.76 288.176 21.76C288.731 21.76 289.264 21.9093 289.776 22.208C290.331 22.464 290.608 22.912 290.608 23.552C290.608 23.7227 290.566 23.9573 290.48 24.256C290.395 24.5547 290.246 24.704 290.033 24.704C289.734 24.704 289.478 24.5547 289.264 24.256C289.094 23.9147 288.88 23.744 288.624 23.744C287.899 23.744 287.024 24.0427 286 24.64C285.019 25.2373 284.059 26.0053 283.12 26.944C282.182 27.84 281.393 28.7787 280.753 29.76C280.155 30.7413 279.857 31.616 279.857 32.384C279.857 32.896 280.155 33.344 280.753 33.728C281.35 34.112 282.054 34.432 282.865 34.688C283.718 34.944 284.55 35.2 285.361 35.456C286.171 35.6693 286.768 35.904 287.152 36.16C287.366 35.9467 287.729 35.6053 288.241 35.136C288.753 34.6667 289.329 34.1547 289.969 33.6C290.609 33.0453 291.185 32.576 291.697 32.192C292.251 31.808 292.635 31.616 292.849 31.616C293.019 31.616 293.104 31.7013 293.104 31.872C293.104 32.0853 292.891 32.448 292.465 32.96C292.081 33.4293 291.59 33.9413 290.992 34.496C290.438 35.0507 289.904 35.584 289.392 36.096C288.88 36.5653 288.518 36.9067 288.305 37.12C288.689 37.76 288.88 38.4427 288.88 39.168C288.88 39.8933 288.561 40.7893 287.921 41.856C287.281 42.88 286.47 43.904 285.488 44.928C284.55 45.952 283.568 46.8053 282.544 47.488C281.52 48.1707 280.646 48.512 279.921 48.512ZM282.353 45.248C282.737 45.248 283.185 45.0347 283.697 44.608C284.251 44.1813 284.785 43.648 285.297 43.008C285.809 42.368 286.235 41.7493 286.577 41.152C286.961 40.512 287.152 40 287.152 39.616C287.152 39.1893 287.067 38.8693 286.896 38.656C286.64 38.912 286.235 39.3173 285.68 39.872C285.168 40.4267 284.614 41.0453 284.016 41.728C283.462 42.368 282.971 42.9867 282.544 43.584C282.16 44.1387 281.969 44.5653 281.969 44.864C281.969 45.12 282.097 45.248 282.353 45.248Z" fill="black"/>
</svg>
